<svg xmlns="http://www.w3.org/2000/svg" viewBox="0 0 512 512" style="width:256px;height:256px"><path d="M256 0C114.616 0 0 114.624 0 256c0 141.391 114.616 256 256 256s256-114.609 256-256C512 114.624 397.384 0 256 0zm104.768 279.819a10.869 10.869 0 01-11.348 4.333l-46.623-10.899v89.334c0 8.652-7.014 15.681-15.681 15.681h-62.232c-8.666 0-15.68-7.029-15.68-15.681v-89.334l-46.623 10.899c-4.312 1-8.798-.71-11.348-4.333a10.842 10.842 0 01-.24-12.131l95.224-131.913a12.073 12.073 0 0119.566 0l95.231 131.913a10.84 10.84 0 01-.246 12.131z" fill="#76512d"/></svg>